<mxfile host="app.diagrams.net" modified="2024-06-28T07:16:28.556Z" agent="Mozilla/5.0 (Macintosh; Intel Mac OS X 10_15_7) AppleWebKit/537.36 (KHTML, like Gecko) Chrome/126.0.0.0 Safari/537.36" version="24.4.0" etag="v1W0-TF6zwMp_EzlJxPD" type="github">
  <diagram name="Page-1" id="-GNoMKgJuBLoV9G-wpCr">
    <mxGraphModel>
      <root>
        <mxCell id="0" />
        <mxCell id="1" parent="0" />
      </root>
    </mxGraphModel>
  </diagram>
</mxfile>
